<svg xmlns="http://www.w3.org/2000/svg" width="520" height="120" viewBox="0 0 520 120" role="img" aria-label="Pathogen Portal CZ">
  <!-- znak: virion -->
  <g fill="none" stroke="#104281" stroke-width="7" stroke-linecap="round">
    <circle cx="60" cy="60" r="26"/>
    <line x1="60" y1="22" x2="60" y2="10"/><circle cx="60" cy="10" r="4" fill="#104281" stroke="none"/>
    <line x1="60" y1="98" x2="60" y2="110"/><circle cx="60" cy="110" r="4" fill="#104281" stroke="none"/>
    <line x1="22" y1="60" x2="10" y2="60"/><circle cx="10" cy="60" r="4" fill="#104281" stroke="none"/>
    <line x1="98" y1="60" x2="110" y2="60"/><circle cx="110" cy="60" r="4" fill="#104281" stroke="none"/>
    <line x1="33" y1="33" x2="25" y2="25"/><circle cx="25" cy="25" r="4" fill="#2a78d6" stroke="none"/>
    <line x1="87" y1="33" x2="95" y2="25"/><circle cx="95" cy="25" r="4" fill="#2a78d6" stroke="none"/>
    <line x1="33" y1="87" x2="25" y2="95"/><circle cx="25" cy="95" r="4" fill="#2a78d6" stroke="none"/>
    <line x1="87" y1="87" x2="95" y2="95"/><circle cx="95" cy="95" r="4" fill="#2a78d6" stroke="none"/>
  </g>
  <circle cx="52" cy="54" r="6" fill="#2a78d6"/>
  <circle cx="70" cy="66" r="4.5" fill="#2a78d6"/>
  <!-- wordmark -->
  <text x="132" y="54" font-family="system-ui, -apple-system, 'Segoe UI', Roboto, sans-serif"
        font-size="34" font-weight="700" fill="#0b0b0b">Pathogen Portal
    <tspan fill="#2a78d6"> CZ</tspan></text>
  <text x="133" y="84" font-family="system-ui, -apple-system, 'Segoe UI', Roboto, sans-serif"
        font-size="17" fill="#52514e">data o infekčních nemocech v ČR</text>
</svg>
